<svg width="923" height="170" version="1.1" xmlns="http://www.w3.org/2000/svg">
<path fill="white" stroke="black" stroke-width="1" d="M 150 0 L 121 30.5 L 148 17 L 148 79 L 113 102 L 129 41.5 L 116 52.5 L 114.5 41 L 66 115.5 L 101 107 L 0 170 L 100 41 L 81 45 Z"/>
<path fill="white" stroke="black" stroke-width="1" d="M 157 17 h45 v16 h-27.5 v6 h27.5 v17 h-27.5 v6 h27.5 v17 h-45 Z"/>
<path fill="white" stroke="black" stroke-width="1" d="M 261 17 L 250.5 33 L 241 33 L 241 79 L 225 79 L 225 33 L 211 33 L 211 17 Z"/>
<path fill="white" stroke="black" stroke-width="1" d="M 293.5 17 L 316 17 L 316 79 L 298 79 L 298 62.5 L 277 79 L 257 79 Z M 298 40 L 291 52 L 298 50 Z"/>
<path fill="white" stroke="black" stroke-width="1" d="M 326 17 h18 v45 h27 v17 h-45 Z"/>
<path fill="white" stroke="black" stroke-width="1" d="M 411 17 h18 v62 h-18 Z"/>
<path fill="white" stroke="black" stroke-width="1" d="M 439 17 L 456 17 L 468 38 L 468 17 L 484 17 L 484 79 L 468 79 L 456 56 L 456 79 L 439 79 Z"/>
<path fill="white" stroke="black" stroke-width="1" d="M 524 17 h18 v45 h27 v17 h-45 Z"/>
<path fill="white" stroke="black" stroke-width="1" d="M 578 17 h45 v16 h-27.5 v6 h27.5 v17 h-27.5 v6 h27.5 v17 h-45 Z"/>
<path fill="white" stroke="black" stroke-width="1" d="M 632 17 h18 v62 h-18 Z"/>
<path fill="white" stroke="black" stroke-width="1" d="M 660 17 h28.5 c 22 0 22 39 0 39 h-11.5 v23 h-17 Z M 677 33 v6 h11 c 3 0 3 -6 0 -6 Z"/>
<path fill="white" stroke="black" stroke-width="1" d="M 711 17 h45 v16 L 738 62 h18 v17 h-45 v-17 L 728 33 h-17 Z"/>
<path fill="white" stroke="black" stroke-width="1" d="M 765 17 h18 v62 h-18 Z"/>
<path fill="white" stroke="black" stroke-width="1" d="M 773 0 L 844 45 L 824 42 L 837 60.5 L 814 49 L 814 88 L 857 116 L 850.5 88 L 827 86.5 L 847 74 L 923 170 L 797 91.5 L 797 25.5 Z"/>
</svg>