<?xml version="1.0" encoding="UTF-8"?>
<!DOCTYPE svg PUBLIC "-//W3C//DTD SVG 1.1//EN" "http://www.w3.org/Graphics/SVG/1.1/DTD/svg11.dtd">
<svg version="1.1" id="Ebene_1" xmlns="http://www.w3.org/2000/svg" xmlns:xlink="http://www.w3.org/1999/xlink" x="0px" y="0px" viewBox="0 0 200 200" enable-background="new 0 0 200 200" xml:space="preserve">
<path fill="#FFFFFF" d="M168.8,143.4c-0.7-1.6-1.2-3.5-1.6-6c8.1-1.6,23.5-8.6,30.3-15.3c-3.9-0.1-11.1-2-14.3-3.1  c3-2.3,8.3-12.3,10.8-18.7c-5.5,5.3-18.1,9.5-28,12.1c1.9-23.7-4.4-50.4,10-69.7c-34.8-3.6-65.8-16.8-76-36.4  C89.8,26,58.8,39.1,24.1,42.6c14.3,19.1,8.1,45.8,9.9,69.3c-9.9-2.6-22.4-6.8-27.9-12.1c2.5,6.4,7.8,16.4,10.8,18.7  c-3.2,1.3-10.3,3-14.3,3.1c6.7,6.8,22.2,13.7,30.3,15.3c-0.4,2.5-0.9,4.6-1.7,6.3c-0.2,0.9,0.1,1.6,0.8,2.2c0.6,0.6,1.5,1.1,2.6,1.5  c5.7,2.3,12.7,4.4,20.2,6.2c3.6,3,8.2,5.9,13.5,9.4c13.5,8.8,29,21.4,31.8,33.2c3-11.6,18.3-24.2,32-33.2c5.3-3.5,9.7-6.4,13.5-9.4  c7.4-1.8,14.3-3.9,20-6.2c0.7-0.3,1.4-0.6,1.9-1c0,0,0,0,0,0c0.1,0,0.1-0.1,0.2-0.1c0.5-0.4,0.9-0.8,1-1.3c0-0.1,0.1-0.2,0.1-0.4  c0-0.1,0-0.1,0-0.2C168.9,143.8,168.9,143.6,168.8,143.4z"/>
<g>
	<g>
		<g>
			<g>
				<path fill="#020304" d="M83.7,69.2c2.5,0.3,3.6,1.6,3.8,3.6c-0.5-0.5-2.1-2.7-3.6-2.7c-1.8,0-2.9,0.9-3.1,2.6H80      C80,72.5,80.2,69.2,83.7,69.2z"/>
			</g>
		</g>
		<g>
			<g enable-background="new    ">
				<path fill="#020304" d="M82.2,76.3c0.9-1,1.8-1,2.5,0.3c0,0-0.7,1.7-1.4,2.3C83.3,79,82.4,78.1,82.2,76.3L82.2,76.3z"/>
			</g>
		</g>
		<g>
			<path fill="#020304" d="M80.2,75c0.7,2.9,2.5,20.3-1.7,20.3c2.1-6.4,0.9-13.8,1-20.5L80.2,75z"/>
		</g>
		<g>
			<path fill="#020304" d="M87.6,75.1c1.9,8.2,14,10.3,17.7,19.1c2.9,6.8-2.1,16.8-16.5,25c5.1-5.3,14.8-10,15.6-19.4     C105.3,87.5,85.1,83.7,87.6,75.1z"/>
		</g>
		<g>
			<path fill="#020304" d="M82.5,95.7c-6.1,2.3-17.2,12.6-23,11.6C64.6,104,74.4,95,82.2,95L82.5,95.7z"/>
		</g>
		<g>
			<path fill="#020304" d="M69.9,104.8c-1.7,1.7-5.3,3.4-7,4.2c5.2,2.2-4.2,4.8-6.2,2.6c1.2-0.4,3.1-0.5,4.5-1.3     c-5.7-0.4-8.3-4.3-8.5-4.4C58.2,107.6,65.2,105.7,69.9,104.8z"/>
		</g>
		<g>
			<path fill="#020304" d="M62.5,116.4c-1.6-0.8-2.5-1.7-3-3.2c1.6,0.1,2.9-1,4.2-1l0,0c0.1,0.3,0.3,0.4,0.4,0.7     c-0.6,0.7-1.4,1.3-2.1,1.9l0,0c3.8,1.8,8.7,2.2,12.9,2.1c-1.4,1.3-3.2,1.8-5.3,1.7c6.8,0.4,13.5-1.7,13.6-1.7     c0.1,0.3,0.1,0.5,0.3,0.8l0,0c-14.3,6.2-21.7-0.5-33.4-6.4C50.9,111.7,59.6,115.7,62.5,116.4C60.1,115.2,59.2,115.6,62.5,116.4z"/>
		</g>
		<g>
			<path fill="#020304" d="M72.2,120.1c0.1,0,0.4,0,0.5,0l0.1,0.8c-3.8,0.5-7.9,0.4-11.7-0.7c0.3,0.1,0.5,0.4,0.5,0.4     c-2.9,0.7-8.4,0.4-10.1-2.9c1.4-1.3,3-0.9,4.7,1.3c-4.8-3.2-7.5-7.9-7.5-8.2C54.9,115.8,62.7,120.6,72.2,120.1     C72.4,120.1,69.4,120.3,72.2,120.1z"/>
		</g>
		<g>
			<path fill="#020304" d="M94.3,97c7.5,7.9-2.2,15.9-9.2,19.4c5.2-4.2,14.2-10.4,8.6-18.7l0,0C93.9,97.4,94.1,97.2,94.3,97z"/>
		</g>
		<g>
			<path fill="#020304" d="M86.3,121.6c-0.4,1.9,0.9,4.7,1.9,6.2c-4.3-0.5-4.4-3-2.7-6.5L86.3,121.6z"/>
		</g>
		<g>
			<path fill="#020304" d="M88,120.3c-0.3,1.3,0.7,3.2,1.4,4.4c-3.4-0.4-3.1-2-2.2-4.7L88,120.3z"/>
		</g>
		<g>
			<g>
				<path fill="#020304" d="M80.2,73.1c0.5,0,1.4,1,1.4,1.6C80.8,76.1,78.5,73.1,80.2,73.1z"/>
			</g>
		</g>
		<g>
			<g>
				<path fill="#020304" d="M87.3,73.2C83.9,73.2,88.9,74.8,87.3,73.2C87.4,73.2,87.3,73.2,87.3,73.2z"/>
			</g>
		</g>
	</g>
	<g>
		<path fill="#020304" d="M116.3,70.1c1.8,0,2.9,0.9,3.1,2.6l0.7-0.1c-2.5-4.3-5.2-4.2-7.5,0.1C113.2,72.3,114.9,70.2,116.3,70.1    C118.9,70.1,113.6,70.2,116.3,70.1z M119.8,73.2c-0.5,0.4-0.9,0.8-1.2,1.4c0.8,1.4,3-1.7,1.4-1.7    C119.9,73.1,119.8,73.1,119.8,73.2z M119.9,77.6c-1,2.9-1.7,17.8,1.8,17.8c-2.1-6.4-0.9-13.8-1-20.5    C119.6,75.1,119.3,76.1,119.9,77.6C119.2,79.4,120.5,76.1,119.9,77.6z M144.1,119c4.8-3.2,7.5-7.9,7.5-8.2    c-5.1,4.4-11.8,8.6-19.6,9.2c11-1.2,18.1-8.6,18.1-8.8c-1,0.5-9.6,4.5-12.5,5.2c1.6-0.8,2.5-1.7,3-3.2c-1.6,0.1-2.9-1-4.2-1l0,0    c-0.1,0.3-0.3,0.4-0.4,0.7l0,0c0.6,0.6,1.4,1.3,2.1,1.9c-4.2,1.4-8.4,2.2-12.9,2.1c1.4,1.3,3.2,1.8,5.3,1.7    c-6.8,0.4-13.5-1.7-13.6-1.7l-0.3,0.8l0,0l0,0l0,0c3.8,1.7,7.3,2.3,10.7,2.6l0,0.7l0,0c3.8,0.5,7.9,0.4,11.7-0.7    c-0.3,0.1-0.5,0.4-0.5,0.4c2.9,0.7,8.4,0.4,10.1-2.9C147.4,116.2,145.8,116.6,144.1,119C148.8,115.7,145.3,118.7,144.1,119z     M116.6,75.7c-0.4,0-1.2,1-1.2,1s0.7,1.7,1.4,2.3c0,0,1-0.9,1.2-2.6C118,76.3,117,75.7,116.6,75.7C116.3,75.7,117,75.7,116.6,75.7    z M117.6,95.7c7.4,2.9,13.3,8.3,20.5,11.1c-2.9-0.5-5.8-2.1-7.9-2c1.7,1.7,5.3,3.4,7,4.2c-5.2,2.2,4.2,4.8,6.2,2.6    c-1.3-0.4-3.1-0.4-4.7-1.3c5.7-0.4,8.3-4.3,8.4-4.4c-1.7-1.8-3.9-1.3-6.6,1.2c-5.9-3.1-14.7-12.1-22.9-12.1L117.6,95.7z     M106.4,83.5c4.2-2.7,7.7-3.5,6.1-8.2c-1.4,6-7.5,7.3-11.8,11.3c0.4,0.4,0.5,0.5,0.8,0.8C103,85.9,104.2,85,106.4,83.5    C108.1,82.4,104.2,85,106.4,83.5z M113.4,123.8c0.8-1.3-0.4-3.5-0.5-3.8c-0.7,1-1.6,3-2.1,4.6    C111.8,124.7,112.7,124.4,113.4,123.8C114.4,122.5,113.2,124.3,113.4,123.8z M111.8,118.6c0,0-6-2.9-10.7-8.2    c-0.1,0.3-0.4,0.4-0.5,0.7c2.9,3,6.1,5.5,11,8.3L111.8,118.6z M114,121.6c0.4,1.9-0.9,4.7-2,6.2c4.3-0.5,4.4-3,2.7-6.5L114,121.6z     M112.7,74.6C112.8,75.4,115.7,73.3,112.7,74.6C112.7,75,112.7,74.6,112.7,74.6z M115,116.4c-2.6-2.1-9.2-6.2-10-11.2    c-0.3,0.5-0.5,1.2-1,1.9C105.1,111.5,114.6,116.1,115,116.4z"/>
	</g>
</g>
<g>
	<g>
		<path fill="#020304" d="M111.4,48c0.4,2.1-2.1,4.8-3.2,4.5c-0.8-0.3-0.5-1.8-0.1-2.9c0.4-0.9,1-1.7,2.5-2.3    c0.8-1.8,0.8-4.8,0.5-6.8c-1.2,0.8-4.4,2.6-5.7,4.6c0.8,1.4,0.4,3-0.5,4.2c-0.6,0.8-1.8,1.8-2.9,1.4c-1.9-2.5-1.5-4.9,1-7.2    c-0.4-2.9-1.2-5.6-3-8.3c-1.8,2.7-2.6,5.5-3,8.3c2.8,2.5,3,4.9,0.5,7.3C96,51,93,48,94.6,45.1c-1.2-2-4.4-3.6-5.7-4.5    c-0.4,2-0.1,4.9,0.5,6.8c1.4,0.5,2.2,1.4,2.5,2.3c2,5.4-4,1.4-3.4-1.7c-1.3-1.8-4.9-2.6-6.1-2.6c0,0,3.5,2.3,5.2,5.2    c1.7,3,2.9,6,2.7,7.5c-0.1,1.4,3.9,3.1,9.5,3c5.5,0.1,9.5-1.6,9.5-3c-0.1-1.7,1-4.7,2.7-7.5c1.7-3,5.2-5.2,5.2-5.2    C116.3,45.4,112.7,46.3,111.4,48C111.9,50.1,112.7,46.3,111.4,48C111.8,50.1,112.7,46.3,111.4,48z M100.1,60.5    c-1.8,0-3.8-0.1-5.6-0.5c-3.3-0.8-3.5-1.6-0.4-2.6c3.9-0.7,7.7-0.7,11.6,0c3.4,0.8,3.5,1.7,0.3,2.6C104,60.3,102,60.5,100.1,60.5z     M109.4,55c0,1.3-0.7,0.6-0.7-0.4c-0.8-0.3-1.7-0.5-2.7-0.7c-0.3,1.3-1.7,0.8-1.9-0.3c-1-0.1-2.1-0.1-3-0.1c-0.4,1-1.7,1-2.1,0.1    c-0.9,0-1.8,0.1-2.6,0.1c-0.1,1-1.6,1.2-1.9,0.3c-1,0.1-1.9,0.4-2.9,0.5c0,0.9-0.7,1.3-0.7,0.1h-0.1c0-0.3,0.6-1.6,0.6-0.8    c0.5-0.4,1.6-0.5,2.9-0.8c0.1-1,1.4-1.2,1.8-0.3c0.8-0.1,1.8-0.1,2.7-0.1c0.4-1,1.8-1,2.1,0c1.2,0,2.2,0.1,3.2,0.3    c0.4-1,1.7-0.8,1.8,0.3c1.2,0.3,2.1,0.5,2.9,0.8C109.3,53.4,109.4,54.9,109.4,55z"/>
	</g>
</g>
<g>
	<path fill="#020304" d="M99.9,67.6l2-1.6h-9.4v2.7c0-0.4,0.3-1.2,0.9-1.2c0.4,0,1.4,0,1.4,0V75c0,0.7-0.1,1-0.7,1.2h3.2   c-0.1,0-0.4-0.3-0.5-0.4c-0.1-0.3-0.3-0.5-0.3-0.8v-7.4H99.9z"/>
	<path fill="#020304" d="M105.8,71.4l2-1.6h-9.2v2.7c0-0.4,0.3-1.2,0.9-1.2c0.4,0,1.4,0,1.4,0v7.4c0,0.7-0.1,1-0.6,1.2h3.1   c-0.3,0-0.4-0.3-0.5-0.4c-0.1-0.3-0.3-0.5-0.3-0.8v-7.4H105.8z"/>
</g>
<g>
	<path fill="#020304" d="M139.2,145.6c0-0.1,0-0.1,0-0.2C139.1,145.1,138.9,144.5,139.2,145.6z"/>
	<path fill="#020304" d="M108,149.3c0,0.1,0,0.2,0,0.2C108,149.4,108,149.3,108,149.3z"/>
	<path fill="#020304" d="M54,144.2c0.4,0.1,0.5,0.1,0.7,0.1c-0.1,0,0.1-0.8,0,0c0.1-0.8,0.4-1.7,0.5-2.5   C54.9,142,52.8,144.2,54,144.2z"/>
	<path fill="#020304" d="M108,149.5c-0.2,0-0.1-0.6,0-0.2c0-0.7-0.1-1.5-0.1-2.4C107.2,147.6,106.3,149.5,108,149.5z"/>
	<path fill="#020304" d="M67.8,142.1h-0.1c-0.1,0-0.3,0-0.3,0.1c-0.3,1.2-0.4,2.5-0.6,3.6c0,0.1,0,0.3,0.1,0.3H67   c0.1,0.1,0.3,0,0.3-0.1c0.3-1.2,0.4-2.5,0.6-3.6C67.9,142.2,67.9,142.1,67.8,142.1z"/>
	<path fill="#020304" d="M84.7,145.5c0.5-0.3,0.8-0.7,1-1.2C85.8,142.4,84.7,145.2,84.7,145.5z"/>
	<path fill="#020304" d="M126.6,143c-0.1-0.5-0.3-0.6-0.5-0.5c-0.4,0.1-0.4,0.3-0.4,0.7c0.1,0.4,0.1,0.9,0.1,1.3   C126.2,144,126.4,143.5,126.6,143z"/>
	<path fill="#020304" d="M150.4,137.9h-0.1c-0.3,0.1-0.3,0.3-0.1,0.5c0.4,1.2,0.6,2.5,1,3.8c0.1,0.3,0.1,0.4,0.4,0.4h0.1   c0.1-0.1,0.1-0.3,0.1-0.5c0,0.3-0.4-1.2,0,0c-0.4-1.2-0.6-2.5-1-3.8C150.6,137.9,150.5,137.9,150.4,137.9z"/>
	<path fill="#020304" d="M135.7,141.4h-0.1c-0.1,0-0.3,0.1-0.1,0.3c0.3,1.2,0.5,2.5,0.8,3.6c0,0.1,0.1,0.1,0.3,0.1h0.1   c0.1,0,0.1-0.1,0.1-0.3c0,0.1-0.3-1.2,0,0c-0.3-1.2-0.5-2.5-0.8-3.6C135.9,141.4,135.8,141.4,135.7,141.4z"/>
	<path fill="#020304" d="M165.6,135.8c7.3-1.2,21.6-7,27.8-12.8c-3.6-0.4-10-1.8-12.9-2.9c2.9-2,7.5-10.3,9.7-15.6   c-5.3,4.7-17.8,8.3-27,10.4c2.9-23.7-4.5-51.6,10-71c-33.5-3.4-63.3-15.2-73.2-34.3C90.3,28.7,60.4,40.6,27,44.1   c14.4,19.4,7,47.3,9.9,71c-9.2-2.1-21.7-5.7-27-10.4c2.2,5.3,7,13.6,9.8,15.6c-2.9,1-9.4,2.5-12.9,2.6c6.2,5.7,20.7,11.7,27.9,12.9   c0,0,0.1,3.4-2,7.1c-0.4,1.4,1.2,2.5,3.1,3.2c6.1,2.3,13.6,4.4,21.6,6.1c3.4,2.5,7.3,5.1,11.9,8.2c13,8.6,27.8,19.9,30.7,31.1   c2.9-11,17.7-22.5,30.7-31.1c4.6-3,8.4-5.5,11.7-8c8.2-1.7,15.9-3.9,22.1-6.3c2-0.7,3.5-1.7,3.2-3.2   C166.7,141.2,166,138.7,165.6,135.8z M45.8,143.9c0.6-0.1,1-0.4,1.3-1.2c0.8-3,1.7-6.1,2.6-9.1c-0.4-0.1-1.8,0.7-1.9,1   c0.4-1.2,0.6-2.2,1-3.4c3.8,1,7.9,2.1,12.2,3c-1,0.5-2,0.9-3,1.4c-2.1-0.5-4.2-1-6.2-1.6c-0.4,1.6-3.4,8.7-2.3,10.3   c0.1,0.4,0.3,0.5,0.5,0.7C48.6,144.7,47.2,144.3,45.8,143.9z M37.1,48.9c14.9-1.4,28.3-4.4,38.7-8.6c11.7-4.6,19.8-10.8,24.2-18.3   c4.4,7.5,12.5,13.8,24.2,18.5c10.4,4.3,23.9,7.3,38.7,8.6c-7.5,9.5-7.3,21.7-6.9,35.8c0.4,11.8,0.7,25.2-3.6,39.8   c-0.4,1.4-0.9,2.7-1.4,4c-14,3-31.8,6.8-51,6.8c-19.3,0-37-3.7-51-6.8c-0.5-1.3-1-2.6-1.4-4.1c-4.3-14.6-3.9-27.9-3.6-39.8   C44.4,70.6,44.7,58.5,37.1,48.9z M146.2,134.9c0.1,0.4,0.1,0.8-0.1,1c-0.1,0.4-0.5,0.5-0.8,0.7c-0.4,0.1-0.8,0-1-0.1   c-0.4-0.1-0.5-0.5-0.5-0.8c-0.1-0.4,0-0.8,0.1-1c0.1-0.4,0.5-0.5,0.8-0.7C145.5,133.9,146,134.2,146.2,134.9   C146.1,134.4,146.3,135.3,146.2,134.9z M131.3,139.1c-0.3,0.4-0.5,0.5-0.9,0.5c-0.4,0.1-0.8,0-1-0.3c-0.4-0.3-0.5-0.5-0.5-0.9   c-0.1-0.4,0-0.8,0.3-1c0.3-0.4,0.5-0.5,0.9-0.5c0.4-0.1,0.7,0,1,0.3c0.4,0.1,0.5,0.4,0.5,0.9c0-0.5,0.1,0.4,0,0   C131.6,138.5,131.5,138.8,131.3,139.1z M78.6,150.3c0,0,0,0,0,0.1c-0.9-0.1-1.8-0.1-2.7-0.4c0.4-3.5,0.8-6.9,1.2-10.3   c0.1-0.4-0.1-0.5-0.4-0.7c0,0,0,0,0-0.1c0.9-0.5,2-1,2.9-1.7c-0.1,1.6-0.4,3.2-0.5,4.8c0.5-0.4,1-0.5,1.7-0.5   c0.9,0.1,1.4,0.7,1.4,1.6c-0.3,2.2-0.4,4.4-0.6,6.6c-0.1,0.4,0.1,0.7,0.4,0.8c-0.8-0.1-1.7-0.1-2.6-0.3c0.3-2.1,0.4-4.3,0.6-6.4   c-0.3-0.8-0.7-0.9-1-0.1c-0.3,1.9-0.4,3.8-0.6,5.7C78.2,149.9,78.3,150,78.6,150.3z M100.2,157c6.8,0,14.1-0.5,21.5-1.3   c-8.6,5.9-18.1,13.1-21.6,20.9c-3.2-7.9-12.7-15.1-21.4-21C86,156.6,93.4,157,100.2,157z M94.2,143.7c-0.1,0.9-0.8,7.2,0.1,7.7   c-0.8,0-1.7-0.1-2.6-0.1c0.1-2.1,0.1-4.3,0.3-6.5c-0.3-0.9-0.7-0.9-1,0c-0.1,2-0.1,3.9-0.3,5.9c0,0.4,0.1,0.5,0.4,0.5v0.1   c-0.9,0-1.8-0.1-2.7-0.1c0.1-2.1,0.3-4.2,0.4-6.4c0-0.3-0.1-0.4-0.2-0.5c0.2,0.7-0.2,1.5-1.3,2.2c-1.1,0.4-2,1-2.6,1.9   c0.4,0.4,1,0.7,1.6,0.8c0.5-0.5,1-0.7,1.6-0.7c0.1,0.1,0.1,0.4,0.1,0.8c-0.1,0.6-0.1,0.5,0,0.3c-0.2,1-0.7,1.5-1.6,1.4   c-0.9-0.1-1.8-0.1-2.7-0.3c-0.8-0.1-1-0.4-1-1.2c0.1-2.2,0.4-4.4,0.5-6.6c0-2,4.7-0.9,5.5,1c0.9-0.5,1.8-1.1,2.6-1.9   c0,0.3,0,0.5,0,0.8C92.4,141.8,93.5,142.1,94.2,143.7z M98.4,142.7c-0.1,0.5-0.3,1-0.4,1.7c-0.1,0-0.4,0-0.5,0c0,1-0.8,6.5,0.3,7   v0.1c-0.9,0-1.8,0-2.7-0.1c0.1-3.5,0.1-6.9,0.3-10.4c0-0.4-0.1-0.5-0.4-0.7c0,0,0,0,0-0.1c0.9-0.6,1.7-1.2,2.6-2   c0,1.4,0,2.9-0.1,4.3C97.7,142.7,98,142.7,98.4,142.7z M104.2,150.5c0,0.4,0.3,0.6,0.4,0.8c-0.8,0-1.7,0-2.6,0.1   c0-0.6,0.5-7.1-0.7-7.1c-0.9,0-1,6.7,0,7c0,0,0,0,0,0.1c-0.9,0-1.8,0-2.7,0c0-3.5,0-6.9,0.1-10.4c0-0.4-0.1-0.5-0.4-0.6   c0,0,0,0,0-0.1c0.8-0.7,1.7-1.3,2.6-2c0,1.7,0,3.2,0,4.8C105,139.1,104.2,149.6,104.2,150.5z M105,144.8c0-0.6,0.2-1.2,0.5-1.7   c3.4-6.8,5.6,8.4,5.2,7.9c-1.2,0.5-2.1,0.2-2.6-0.9c-1.1,2.7-6.4-2.7-0.5-5.6C107.1,143.8,105.8,143.7,105,144.8z M110.2,140.1   c0,0,0,0,0-0.1c0.8-0.8,1.7-1.4,2.5-2.1c0.3,4.2,0.5,8.2,0.8,12.3c0,0.3,0.1,0.4,0.5,0.4c0,0.1,0,0.1,0,0.1   c-0.9,0.1-1.8,0.1-2.7,0.1c-0.1-3.5-0.4-6.9-0.5-10.3C110.7,140.3,110.6,140.1,110.2,140.1z M117.3,150.5c0.5-0.3,0.9-0.8,0.8-1.4   c-0.4-3.4-0.7-6.8-1-10.1c-0.1-0.8-0.4-1.2-0.8-1.2c1.2-0.1,2.4-0.3,3.6-0.4c-0.5,0.1-0.7,0.7-0.5,1.4c0.4,3.1,0.7,6.4,1,9.5   c0.5-0.1,1-0.1,1.4-0.1c0.8-0.1,1.2-0.6,1.3-1.7c0.3,0.9,0.4,2.2,0.5,3.4C121.6,150.2,119.4,150.4,117.3,150.5z M123.6,142.2   c0-0.4,0.1-0.5,0.3-0.8c3-3,4.8-0.4,5.2,2c0.5,1.6-2.5,2.4-2.5,3.9c0.4,1.1,2.7,0.2,2.7-0.5h0.1c0.1,0,0.1,0.3,0.1,0.5   c0-0.3,0.1,1.2,0,0c0.1,1.2-0.3,2-1.3,2.1c-0.9,0.1-1.8,0.3-2.7,0.4c-0.8,0.1-1.2-0.1-1.2-0.9C124.1,146.6,123.8,144.4,123.6,142.2   z M60.5,146.8c-0.5,0.4-1.2,0.5-1.8,0.4c-1-0.3-1.4-0.8-1.2-1.7c0.4-1.7,0.8-3.4,1-5.1c0.1-0.3,0-0.5-0.3-0.7   c-0.2,1.9-2.7,4.4-1.4,6.9c-1.3,0.2-2-0.3-2.2-1.6c-0.4,0.5-0.8,0.8-1.2,0.8c-0.4-0.1-0.6-0.1-1-0.3c-1.6-0.3-0.3-4,0-4   c1.1-1.1,2.7-1.1,3.8-2.2c0-0.1,0-0.3-0.3-0.3c-0.8-0.2-1.6-0.2-2.5,0.1c0.6-0.6,1-2.2,2.2-1.8c1.9,0.5,2.6,1.2,2.6,2   c1-0.4,1.9-0.9,2.7-1.2c-0.5,2.2-0.9,4.4-1.4,6.6c-0.1,0.4,0.1,0.7,0.4,0.8c0.4,0.1,0.5-0.1,0.7-0.5c0.3-1.4,0.5-2.7,0.8-4.2   c0.1-0.4-0.1-0.5-0.4-0.7v-0.1c1-0.5,2-1,3-1.4c-0.5,2.7-1,5.5-1.6,8.1c0.4,0.8,0.5,1,0.8,1.2C62.7,147.8,60.5,148,60.5,146.8z    M69.4,147.3C69.3,147.4,69.3,147.4,69.4,147.3c-0.1,0.5-0.4,0.9-0.6,1.2c-0.4,0.3-0.8,0.4-1.3,0.4c-0.5-0.1-1-0.4-1.2-0.8   c-0.1,0.4-0.4,0.4-0.8,0.4c-0.6-0.1-1.4-0.3-2.1-0.4v-0.1c1.1,0,2.2-9.3,2.3-10.1c0.1-0.4,0-0.6-0.4-0.6c0,0,0,0,0-0.1   c1-0.5,2-1,2.9-1.4c-0.3,1.6-0.5,3.1-0.8,4.8c0.5-0.4,1.1-0.5,1.7-0.5c0.9,0.1,1.2,0.8,1,1.9C70,143.7,69.8,145.5,69.4,147.3   C69.5,146.8,69.6,146.1,69.4,147.3z M73.8,140.7c1.6,0.3,2.3,0.8,2.1,1.7c-0.1,0.8-0.1,1.4-0.3,2.1h-0.1c-0.1-0.4-0.1-0.8-0.4-0.9   c-0.7-0.6-1.2-0.6-1.6,0.1c-0.1,1.2-0.4,2.2-0.5,3.4c0,0.3,0.1,0.4,0.4,0.5c0.5,0.1,1-0.1,1.2-0.4c0.1-0.4,0.4-0.7,0.5-0.9h0.1   c0.2,0.6,0.1,1.3,0,1.9c0,0,0,0,0,0.2c0,0.2,0,0.2,0,0.1c-0.5,1.8-3.9,1.6-4.8,0.3C68.6,147,70.5,140.2,73.8,140.7z M128.3,155.7   c-12,7.9-25.6,17.9-28.2,28.2c-2.6-10.1-16.3-20.3-28.2-28.2c-0.6-0.4-1.2-0.8-1.8-1.2c2.1,0.3,4.2,0.6,6.3,0.9   c10.6,7.1,21.5,15.3,23.8,24.1c2.3-8.8,13.2-17,23.7-24c2.1-0.3,4.1-0.5,6.2-0.8C129.4,155,128.8,155.4,128.3,155.7z M133.5,148.5   c-0.9,0.1-1.8,0.4-2.6,0.4c-0.4-2.1-0.6-4.2-1-6.2c-0.1-0.4-0.3-0.5-0.5-0.5V142c0.8-0.8,1.4-1.6,2.3-2.3c0.5,2.9,1,5.5,1.4,8.3   c0.1,0.3,0.3,0.4,0.5,0.4C133.5,148.5,133.5,148.5,133.5,148.5z M136.3,147.4c0.1,0.7,0.3,1.2,0.4,2c-0.8,0.8-1.6,1.7-2.3,2.6   c0-3.2-0.7-6.5-1.2-9.7c-0.1-0.4-0.3-0.5-0.5-0.5v-0.1c0.8-0.8,1.4-1.7,2.2-2.3c0.1,0.3,0.1,0.5,0.1,0.8c0.3-0.5,0.8-0.8,1.4-0.9   c0.9-0.1,1.4,0.4,1.7,1.4c0.4,1.6,0.6,3.3,1,4.9c0,0.2,0.1,0.4,0,0.2C139.6,147.1,137.6,148.7,136.3,147.4z M144.8,146   c-1.3,1-2.9,1.5-4.7,1.3c0.3-1.3,0.4-2.7,0.5-4c-0.4,0.1-0.5,0.1-0.9,0.1c0.1-0.4,0.1-0.7,0.1-1c0.3-0.1,0.5-0.1,0.8-0.1   c0.1-0.5,0.1-1.2,0.3-1.8c-0.3,0.1-0.5,0.1-0.8,0.1c-0.8,0.1-1.2,0.8-1,1.7c-0.7-4.3-0.5-3.7,4.2-4.7c-0.1,1.3-0.3,2.7-0.4,4   c0.3-0.1,0.5-0.1,0.8-0.1c0,0.4-0.1,0.7-0.1,1c-0.3,0.1-0.5,0.1-0.8,0.1c-0.1,0.5-0.1,1.2-0.1,1.8c0.3-0.1,0.5-0.1,0.8-0.1   c0.4-0.1,0.5-0.4,0.8-0.8c0.1-0.4,0.3-0.8,0.1-1h0.1c0.4,0.8,0.5,1.6,0.6,2.3c-0.1-0.8,0.1,0.4,0,0   C145.2,145.2,145,145.6,144.8,146z M148.8,145.2c-0.9,0.3-1.7,0.4-2.6,0.6c-0.5-2.1-1-4.2-1.4-6.1c-0.1-0.4-0.4-0.5-0.5-0.5v-0.1   c0.8-0.8,1.4-1.7,2.1-2.6c0.6,2.7,1.4,5.5,2.1,8.2c0.1,0.3,0.3,0.4,0.5,0.4C148.8,145.2,148.8,145.2,148.8,145.2z M150.6,146.8   c-0.4-0.4-0.8-0.9-1-1.4c0.7-0.1,1.3-0.4,2-0.5c0.2,0.2,0.4,0.4,0.7,0.5c0.1-0.1,0.3-0.3,0.1-0.6c-0.1-0.1-0.1-0.4-0.1-0.5   c-0.4,0.1-0.7,0.4-1,0.4c-0.8,0.3-1.4,0.1-1.8-0.4c-0.8-1.6-3.5-7.1-0.6-8.2c0.6-0.1,1-0.1,1.4,0.3c0-0.1,0-0.4,0.1-0.5   c0.8-0.1,1.6-0.3,2.2-0.5C152.4,135.3,157.2,151.2,150.6,146.8z M155.6,126.1c-0.2,0.5-0.4,1-0.5,1.5c-1,0.2-2,0.4-3.1,0.7   c0.4-1.1,0.8-2.2,1.1-3.4c9.6-32.6-3.9-59.3,11.4-76.4c-29.4-2.6-55.8-11.4-64.5-28.2c-8.6,16.8-35,25.6-64.5,28.2   c15.3,17.2,1.8,43.8,11.4,76.4c0.4,1.2,0.7,2.3,1.1,3.4c-1-0.2-2.1-0.5-3.1-0.7c-0.2-0.5-0.4-1-0.5-1.5c-9.6-29.5,4-59.5-12-79   c30.8-3,58.4-12.9,67.5-30.6c9.1,17.7,36.7,27.6,67.6,30.6C151.7,66.6,165.3,96.7,155.6,126.1z"/>
</g>
<ellipse transform="matrix(0.9514 0.308 -0.308 0.9514 45.0321 -11.2775)" fill="#FFFFFF" cx="58.2" cy="137" rx="1" ry="0.6"/>
<ellipse transform="matrix(0.9514 0.308 -0.308 0.9514 44.6634 -10.5497)" fill="#FFFFFF" cx="55.8" cy="136.2" rx="1" ry="0.6"/>
</svg>