<svg xmlns="http://www.w3.org/2000/svg" viewBox="0 0 200.594 36.191">
  <defs>
    <style>
      .cls-1 {
        fill: #e8e6d4;
      }
    </style>
  </defs>
  <path id="Pfad_1" data-name="Pfad 1" class="cls-1" d="M33.134,33.373V30.631c0-.318-.159-.477-.516-.477h-.4c-.079,0-.119.079-.119.2v3.3c0,.119.04.2.159.2h.4a.421.421,0,0,0,.477-.477M36.67,32.9Zm.04-.636c.358,0,1.033-.159,1.033-.477v-1.43c0-.159-.04-.2-.119-.2h-.755a.182.182,0,0,0-.159.2V32.26Zm0,0Zm32.578.636Zm.04-.636c.358,0,1.033-.159,1.033-.477v-1.43c0-.159-.04-.2-.119-.2h-.755a.182.182,0,0,0-.159.2V32.26Zm0,0Zm40.286-1.629v2.741c0,.318.159.477.516.477s.516-.159.516-.477c0-.2.119-.318.4-.318.238,0,.4.119.4.318a1.059,1.059,0,0,1-.358.795,1.472,1.472,0,0,1-1.828,0,1,1,0,0,1-.358-.795V30.631a1.059,1.059,0,0,1,.358-.795,1.417,1.417,0,0,1,.914-.318,1.341,1.341,0,0,1,.914.318,1,1,0,0,1,.358.795c0,.2-.119.318-.4.318-.2,0-.318-.079-.358-.2a1.16,1.16,0,0,1-.079-.358.465.465,0,0,0-.437-.2c-.4-.04-.556.119-.556.437m-2.821,3.5c0,.2-.119.318-.4.318-.238,0-.4-.119-.4-.318V29.837c0-.2.119-.318.4-.318.238,0,.4.119.4.318Zm-2.781-.755a1,1,0,0,1-.358.795,1.472,1.472,0,0,1-1.828,0,1,1,0,0,1-.358-.795c0-.2.119-.318.4-.318s.4.119.4.318c0,.318.159.477.516.477h0c.358,0,.516-.159.516-.477v-.914c0-.119-.04-.2-.119-.2h-.755a1,1,0,0,1-.675-.238.809.809,0,0,1-.238-.6v-.795a1,1,0,0,1,.358-.795,1.472,1.472,0,0,1,1.828,0,1,1,0,0,1,.358.795c0,.2-.119.318-.4.318-.238,0-.4-.119-.4-.318,0-.318-.159-.477-.516-.477h-.079a.449.449,0,0,0-.437.477v.795c0,.119.04.2.159.2h.715a.935.935,0,0,1,.675.238.809.809,0,0,1,.238.6v.914Zm-4.609,0a1.059,1.059,0,0,1-.358.795,1.472,1.472,0,0,1-1.828,0,1,1,0,0,1-.358-.795V29.837c0-.2.119-.318.4-.318s.4.119.4.318v3.536c0,.318.159.477.516.477s.516-.159.516-.477V29.837c0-.2.119-.318.4-.318s.4.119.4.318v3.536Zm-4.609.755c0,.2-.119.318-.4.318-.238,0-.4-.119-.4-.318V30.592c0-.318-.159-.477-.516-.477s-.516.159-.516.477v3.536c0,.2-.119.318-.4.318-.238,0-.4-.119-.4-.318V30.592c0-.318-.159-.477-.516-.477s-.516.159-.516.477v3.536c0,.2-.119.318-.4.318-.238,0-.4-.119-.4-.318V30.592A1.059,1.059,0,0,1,90.7,29.8a1.417,1.417,0,0,1,.914-.318,1.393,1.393,0,0,1,.914.278,1.284,1.284,0,0,1,.874-.278,1.341,1.341,0,0,1,.914.318,1,1,0,0,1,.358.795v3.536ZM87.047,31.9a.676.676,0,0,1-.04.278.831.831,0,0,1-.159.238.507.507,0,0,1-.238.159.589.589,0,0,1-.278.04.676.676,0,0,1-.278-.04.831.831,0,0,1-.238-.159.506.506,0,0,1-.159-.238.589.589,0,0,1-.04-.278.676.676,0,0,1,.04-.278.4.4,0,0,1,.159-.2.507.507,0,0,1,.238-.159.993.993,0,0,1,.556,0,.4.4,0,0,1,.2.159.7.7,0,0,1,.159.2.335.335,0,0,1,.079.278m-5.085,2.225c0,.2-.119.318-.4.318h-.914a.935.935,0,0,1-.675-.238.809.809,0,0,1-.238-.6V29.837c0-.2.119-.318.4-.318.238,0,.4.119.4.318v3.774c0,.159.04.2.159.2H81.6c.238.04.358.119.358.318m-3.814,0c0,.2-.119.318-.4.318h-.914a.935.935,0,0,1-.675-.238.809.809,0,0,1-.238-.6V29.837c0-.2.119-.318.4-.318.238,0,.4.119.4.318v3.774c0,.159.04.2.159.2h.914c.2.04.358.119.358.318m-4.251,0c0,.2-.119.318-.4.318-.238,0-.4-.119-.4-.318V29.837c0-.2.119-.318.4-.318.238,0,.4.119.4.318Zm-2.781,0c0,.2-.119.318-.4.318-.238,0-.4-.119-.4-.318v-.795c0-.278-.715-.437-1.033-.477v1.271c0,.2-.119.318-.4.318-.238,0-.4-.119-.4-.318V30.353h0v-.516c0-.2.119-.318.358-.318h1.271a.935.935,0,0,1,.675.238.809.809,0,0,1,.238.6v1.43c0,.318-.318.755-1.192.755,1.033-.04,1.192.477,1.192.795v.795Zm-4.569,0c0,.2-.119.318-.4.318a.451.451,0,0,1-.318-.119,1.594,1.594,0,0,1-.6.119,1.417,1.417,0,0,1-.914-.318,1,1,0,0,1-.358-.795V30.592a1.059,1.059,0,0,1,.358-.795,1.417,1.417,0,0,1,.914-.318,1.341,1.341,0,0,1,.914.318,1,1,0,0,1,.358.795c0,.2-.119.318-.4.318-.2,0-.318-.079-.358-.2a1.16,1.16,0,0,1-.079-.358.465.465,0,0,0-.437-.2c-.358,0-.516.159-.516.477v2.741c0,.318.159.477.516.477s.516-.159.516-.477v-.278a.233.233,0,0,0-.079-.2h-.278c-.238,0-.4-.119-.4-.318s.119-.318.4-.318h.2a.935.935,0,0,1,.675.238.809.809,0,0,1,.238.6v1.033ZM60.587,31.9a.676.676,0,0,1-.04.278.831.831,0,0,1-.159.238.507.507,0,0,1-.238.159.993.993,0,0,1-.556,0,.831.831,0,0,1-.238-.159.506.506,0,0,1-.159-.238.589.589,0,0,1-.04-.278.676.676,0,0,1,.04-.278.4.4,0,0,1,.159-.2.506.506,0,0,1,.238-.159.993.993,0,0,1,.556,0,.4.4,0,0,1,.2.159.7.7,0,0,1,.159.2.335.335,0,0,1,.079.278M55.1,33.373a1,1,0,0,1-.358.795,1.472,1.472,0,0,1-1.828,0,1,1,0,0,1-.358-.795c0-.2.119-.318.4-.318.238,0,.4.119.4.318,0,.318.159.477.516.477h0c.358,0,.516-.159.516-.477v-.914c0-.119-.04-.2-.119-.2h-.755a1,1,0,0,1-.675-.238.809.809,0,0,1-.238-.6v-.795a1,1,0,0,1,.358-.795,1.472,1.472,0,0,1,1.828,0,1,1,0,0,1,.358.795c0,.2-.119.318-.4.318-.238,0-.4-.119-.4-.318,0-.318-.159-.477-.516-.477h-.079a.449.449,0,0,0-.437.477v.795c0,.119.04.2.159.2h.715a.935.935,0,0,1,.675.238.809.809,0,0,1,.238.6Zm-4.609.755c0,.2-.119.318-.4.318s-.4-.159-.4-.477v-.516c0-.4-.159-.6-.516-.6h-.516v1.271c0,.2-.119.318-.4.318-.238,0-.4-.119-.4-.318V29.837c0-.2.119-.318.4-.318.238,0,.4.119.4.318V32.26h.556a.387.387,0,0,0,.358-.159.451.451,0,0,0,.119-.318V29.837c0-.2.119-.318.4-.318.238,0,.4.119.4.318v1.947a.923.923,0,0,1-.358.755.947.947,0,0,1,.358.795Zm-4.609,0c0,.2-.119.318-.4.318-.238,0-.4-.119-.4-.318V30.592c0-.318-.159-.477-.516-.477s-.516.159-.516.477v3.536c0,.2-.119.318-.4.318-.238,0-.4-.119-.4-.318V29.837c0-.2.119-.318.4-.318a.451.451,0,0,1,.318.119,1.451,1.451,0,0,1,.6-.119,1.341,1.341,0,0,1,.914.318,1,1,0,0,1,.358.795v3.5Zm-4.569,0c0,.2-.119.318-.4.318s-.4-.119-.4-.318V29.837c0-.2.119-.318.4-.318s.4.119.4.318Zm-2.821,0c0,.2-.119.318-.4.318-.238,0-.4-.119-.4-.318v-.795c0-.278-.715-.437-1.033-.477v1.271c0,.2-.119.318-.4.318-.238,0-.4-.119-.4-.318V30.353h0v-.516c0-.2.119-.318.358-.318H37.5a.935.935,0,0,1,.675.238.809.809,0,0,1,.238.6v1.43c0,.318-.318.755-1.192.755,1.033-.04,1.192.477,1.192.795v.795Zm-4.569-.755a.923.923,0,0,1-.358.755,1.417,1.417,0,0,1-.914.318h-.874c-.238,0-.358-.119-.358-.318V32.856h0V29.8c0-.2.119-.318.358-.318H32.7a1.341,1.341,0,0,1,.914.318,1,1,0,0,1,.358.795v2.781Zm78.783-5.006H29.757V35.6h82.995V28.367ZM27.731,11.045l3.5-.278c0-2.7-.119-6.079-.4-10.171H.4C.119,4.688,0,8.065,0,10.767l3.536.278L7.151,6.714l4.092-.358V28.526L7.032,29.678l-.278,5.959H24.235l-.159-5.046h0L21.057,28.8a1.9,1.9,0,0,1-.834-.675,5.221,5.221,0,0,1-.159-1.51V6.357l3.973.358Zm16.09,2.861-4.648-.2,2.384-6.953Zm10.33,11.561.2-2.582-.636-.834a4.974,4.974,0,0,1-.556-.795c-.079-.2-.278-.6-.516-1.232L45.45.556l-6.158.556L30.87,21.573l-1.112.675.159,3.218h9.416l.358-3.178-2.5-1.033a.627.627,0,0,1-.318-.2c-.079-.079-.079-.2-.079-.4a1.751,1.751,0,0,1,.119-.556l.795-2.265,7.35-.119,1.152,3.655-2.582.636.358,3.417H54.151ZM80.77,5.6,82.6,4.807l-.159-3.695H72.784l.238,3.019L74.89,5.363c.318.2.556.358.636.556a3.676,3.676,0,0,1,.2,1.112l.516,8.065L65.355,1.152H57.886l-.238,3.178L59,5.324a1.389,1.389,0,0,1,.516.6,2.479,2.479,0,0,1,.119.954L59.475,21.1l-1.947.477-.159,3.933H67.421l-.2-3.019-1.867-1.271c-.318-.2-.556-.358-.636-.556a3.338,3.338,0,0,1-.2-1.073l-.6-9.456L76.519,26.579l4.172-1.391Zm27.215,19.865h4.887V23.838l-11.76-11.4,8.264-8.86.238-2.463h-9.058l-.4,2.384,1.033,1.271a.451.451,0,0,1,.119.318.461.461,0,0,1-.159.4l-6.317,6.833V5.562L97.5,4.847l.834-3.695H85.736l.2,3.417,1.51.874A1.211,1.211,0,0,1,88.16,6a4.133,4.133,0,0,1,.119,1.232V21.057l-2.265.6-.159,3.774H99.721L99.4,23.083l-3.337-1.43a2.159,2.159,0,0,1-1.271-2.066V14.62l8.462,8.3.477,2.582h4.251Zm29.042.437a14.082,14.082,0,0,1-.516,3.576,12.1,12.1,0,0,1-4.092.516,19.936,19.936,0,0,1-3.973-.358v-8.78l1.152-.04a14.813,14.813,0,0,1,1.669-.119c2.106,0,3.576.358,4.45,1.073.874.675,1.311,2.463,1.311,4.132M135.08,10.012a19.152,19.152,0,0,1-.516,5.244c-1.232-.119-2.5-.159-3.893-.159-.914,0-1.669,0-2.225.04V5.84q1.311-.119,2.622-.119a4.462,4.462,0,0,1,3.019,1.112,4.422,4.422,0,0,1,.993,3.178m8.979,22.646c1.669-1.867,2.066-5.4,2.066-8.423,0-3.417-1.669-5.84-5.046-7.39a9.167,9.167,0,0,0,2.185-3.139,15.344,15.344,0,0,0,.715-4.847c0-3.059-1.112-5.284-3.337-6.714S134.921,0,130.114,0a110.162,110.162,0,0,0-14.024,1.073l-.318,4.172,2.622,1.47a2.205,2.205,0,0,1,1.073.795,5.257,5.257,0,0,1,.2,1.748V29.916l-3.615.993.2,4.768c6.913.079,14.859.834,19.9.358,3.258-.6,6.238-1.549,7.906-3.377m19.785-18.752-4.648-.2,2.384-6.953Zm10.33,11.561.2-2.582-.636-.834a4.975,4.975,0,0,1-.556-.795,9.433,9.433,0,0,1-.516-1.232L165.473.556l-6.158.556-8.462,20.5-1.112.675.159,3.218h9.456l.358-3.178-2.5-1.033a.627.627,0,0,1-.318-.2c-.079-.079-.079-.2-.079-.4a1.751,1.751,0,0,1,.119-.556l.795-2.265,7.35-.119,1.152,3.655-2.582.636L164,25.467ZM192.37,8.3a11.866,11.866,0,0,1-.358,3.1,8.209,8.209,0,0,1-2.821.358,11.528,11.528,0,0,1-2.225-.2V5.085a18.538,18.538,0,0,1,2.066-.119,3.585,3.585,0,0,1,2.582.755A3.522,3.522,0,0,1,192.37,8.3M196.9,25.467h3.695l-.119-1.391-5.8-9.336a7.465,7.465,0,0,0,3.3-2.582,6.847,6.847,0,0,0,1.152-3.933,7.672,7.672,0,0,0-1.112-4.37,6.267,6.267,0,0,0-3.5-2.423,20.819,20.819,0,0,0-6.277-.795,74.164,74.164,0,0,0-10.449.795l-.2,2.98,1.867,1.033a1.327,1.327,0,0,1,.755.556,3.779,3.779,0,0,1,.159,1.232V20.977l-2.622.715-.159,3.695h12.157l-.516-3.1-1.549-.914a1.826,1.826,0,0,1-.636-.516,3.079,3.079,0,0,1-.119-1.112V15.812l1.589.04,3.695,6.635.556,2.98H196.9Zm-44.576,7.469Zm.04-.636c.358,0,1.033-.159,1.033-.477v-1.43c0-.159-.04-.2-.119-.2h-.755a.182.182,0,0,0-.159.2V32.3Zm0,0Zm18.395,1.192v-.437c0-.159-.04-.238-.119-.278h-.755c-.079.04-.119.079-.119.238v.556c.04.119.079.159.119.159h.755c.079,0,.119-.04.119-.159v-.079m17.4-1.192h1.033V30.671c0-.318-.159-.477-.516-.477s-.516.159-.516.477V32.3Zm4.569.636Zm.04-.636c.358,0,1.033-.159,1.033-.477v-1.43c0-.159-.04-.2-.119-.2h-.755a.182.182,0,0,0-.159.2V32.3Zm0,0Zm6.357,1.112a1,1,0,0,1-.358.795,1.472,1.472,0,0,1-1.828,0,1,1,0,0,1-.358-.795c0-.2.119-.318.4-.318.238,0,.4.119.4.318,0,.318.159.477.516.477h0c.358,0,.516-.159.516-.477V32.5c0-.119-.04-.2-.119-.2h-.755a1,1,0,0,1-.675-.238.809.809,0,0,1-.238-.6v-.795a1,1,0,0,1,.358-.795,1.472,1.472,0,0,1,1.828,0,1,1,0,0,1,.358.795c0,.2-.119.318-.4.318-.238,0-.4-.119-.4-.318,0-.318-.159-.477-.516-.477h-.079a.449.449,0,0,0-.437.477v.795c0,.119.04.2.159.2h.715a.935.935,0,0,1,.675.238.809.809,0,0,1,.238.6v.914Zm-4.569.795c0,.2-.119.318-.4.318-.238,0-.4-.119-.4-.318v-.795c0-.278-.715-.437-1.033-.477v1.271c0,.2-.119.318-.4.318-.238,0-.4-.119-.4-.318V30.433a.809.809,0,0,1,.238-.6.935.935,0,0,1,.675-.238h.715a.935.935,0,0,1,.675.238.809.809,0,0,1,.238.6v1.43c0,.318-.318.755-1.192.755,1.033-.04,1.192.477,1.192.795v.795Zm-4.609,0c0,.2-.119.318-.4.318-.238,0-.4-.119-.4-.318V32.936h-1.033v1.271c0,.2-.119.318-.4.318-.238,0-.4-.119-.4-.318V30.671a1.059,1.059,0,0,1,.358-.795,1.417,1.417,0,0,1,.914-.318,1.341,1.341,0,0,1,.914.318,1,1,0,0,1,.358.795v3.536Zm-4.529,0c0,.2-.119.318-.4.318a.451.451,0,0,1-.318-.119,1.594,1.594,0,0,1-.6.119,1.417,1.417,0,0,1-.914-.318,1,1,0,0,1-.358-.795V30.671a1.059,1.059,0,0,1,.358-.795,1.417,1.417,0,0,1,.914-.318,1.341,1.341,0,0,1,.914.318,1,1,0,0,1,.358.795c0,.2-.119.318-.4.318-.2,0-.318-.079-.358-.2a1.16,1.16,0,0,1-.079-.358.465.465,0,0,0-.437-.2c-.358,0-.516.159-.516.477v2.741c0,.318.159.477.516.477s.516-.159.516-.477v-.278a.233.233,0,0,0-.079-.2h-.278c-.238,0-.4-.119-.4-.318s.119-.318.4-.318h.2a.935.935,0,0,1,.675.238.809.809,0,0,1,.238.6v1.033Zm-4.609,0c0,.2-.119.318-.4.318-.238,0-.4-.119-.4-.318V29.916c0-.2.119-.318.4-.318.238,0,.4.119.4.318Zm-4.489-3.536v2.741c0,.318.159.477.516.477s.516-.159.516-.477c0-.2.119-.318.4-.318.238,0,.4.119.4.318a1.059,1.059,0,0,1-.358.795,1.472,1.472,0,0,1-1.828,0,1,1,0,0,1-.358-.795V30.671a1.059,1.059,0,0,1,.358-.795,1.417,1.417,0,0,1,.914-.318,1.341,1.341,0,0,1,.914.318,1,1,0,0,1,.358.795c0,.2-.119.318-.4.318-.2,0-.318-.079-.358-.2a1.16,1.16,0,0,1-.079-.358.465.465,0,0,0-.437-.2c-.4,0-.556.119-.556.437m-4.489,3.695a.334.334,0,0,1-.556,0l-.079-.119h0l-.079.079a.039.039,0,0,0-.04.04.139.139,0,0,0-.079.04c-.04,0-.04.04-.079.04s-.04,0-.079.04c-.04,0-.119.04-.159.04h-.755a.91.91,0,0,1-.675-.318,1.145,1.145,0,0,1-.238-.755v-.675a.146.146,0,0,1,.04-.119c0-.04,0-.04.04-.079,0-.04.04-.04.04-.079l.119-.238a.618.618,0,0,1,.318-.238,2.885,2.885,0,0,1-.556-1.351,1.223,1.223,0,0,1,.238-.755.829.829,0,0,1,.636-.318h.755a.91.91,0,0,1,.675.318,1.145,1.145,0,0,1,.238.755c0,.278-.119.4-.4.4-.159,0-.278-.04-.318-.159,0-.04-.04-.159-.079-.318,0-.119-.04-.159-.119-.159h-.755c-.079,0-.159.119-.159.278a3.448,3.448,0,0,0,.556,1.271h.477a.348.348,0,0,1,.358-.318.356.356,0,0,1,.4.4v.993h0v.437l.318.358a.339.339,0,0,1,0,.516m-6.714-.159c0,.2-.119.318-.4.318-.238,0-.4-.119-.4-.318V30.671c0-.318-.159-.477-.516-.477s-.516.159-.516.477v3.536c0,.2-.119.318-.4.318-.238,0-.4-.119-.4-.318V30.671c0-.318-.159-.477-.516-.477s-.516.159-.516.477v3.536c0,.2-.119.318-.4.318s-.4-.119-.4-.318V30.671a1.059,1.059,0,0,1,.358-.795,1.417,1.417,0,0,1,.914-.318,1.393,1.393,0,0,1,.914.278,1.284,1.284,0,0,1,.874-.278,1.341,1.341,0,0,1,.914.318,1,1,0,0,1,.358.795v3.536Zm-6.4-.795a1.059,1.059,0,0,1-.358.795,1.472,1.472,0,0,1-1.828,0,1,1,0,0,1-.358-.795V29.877c0-.2.119-.318.4-.318.238,0,.4.119.4.318v3.536c0,.318.159.477.516.477s.516-.159.516-.477V29.877c0-.2.119-.318.4-.318.238,0,.4.119.4.318v3.536Zm-4.569.795c0,.2-.119.318-.4.318-.238,0-.4-.119-.4-.318v-.795c0-.278-.715-.437-1.033-.477v1.271c0,.2-.119.318-.4.318-.238,0-.4-.119-.4-.318V30.433a.809.809,0,0,1,.238-.6.935.935,0,0,1,.675-.238h.715a.935.935,0,0,1,.675.238.809.809,0,0,1,.238.6v1.43c0,.318-.318.755-1.192.755,1.033-.04,1.192.477,1.192.795v.795Zm46.4-5.761H150.018v7.231h50.536Z"/>
</svg>
